<svg xmlns="http://www.w3.org/2000/svg" xmlns:xlink="http://www.w3.org/1999/xlink" viewBox="0 0 678.9 140.4"><defs><style>      .cls-1 {        fill: none;        stroke: #000;        stroke-miterlimit: 10;      }      .cls-2 {        fill: #fff;      }      .cls-3 {        fill: url(#linear-gradient);      }    </style><linearGradient id="linear-gradient" x1="13.3" y1="71.2" x2="81.2" y2="71.2" gradientTransform="translate(0 142) scale(1 -1)" gradientUnits="userSpaceOnUse"><stop offset="0" stop-color="#f9b233"></stop><stop offset="0" stop-color="#d7b73c"></stop><stop offset=".5" stop-color="#ffef36"></stop><stop offset="1" stop-color="#ebbf29"></stop></linearGradient></defs><g><g id="Laag_1"><line class="cls-1" x1="95" y1="-155.5" x2="95.5" y2="-155.5"></line><path class="cls-3" d="M47.1,13.5h0L13.4,45.1v51.1l33.8,31.8,33.9-31.8v-51.1L47.1,13.5ZM46.5,23.9l.8-.7h0c0-.1,13.8,13.9,13.8,13.9l-13.9,13.5-13.7-13.8,13-12.9ZM48,117.5l-.8.7h0c0,0-13.8-13.9-13.8-13.9l13.8-13.8,13.7,14.1-12.9,12.9ZM73.9,93.6l-7.2,6.6-19.5-19.5-12-12-5.2,5.2,12,12-14.4,14.3-7.1-6.6v-45.8c.1,0,7.3-6.6,7.3-6.6l19.5,19.5,12,12,5.2-5.2-12-12,14.4-14.3,7.1,6.6v45.8Z"></path><g><path class="cls-2" d="M102.4,84.9v-28c0-.4.3-.7.7-.7h3.4c.3,0,.7.2.8.5l11.7,19.2c0,.2.3.2.3,0v-18.9c0-.4.3-.7.7-.7h3.5c.4,0,.7.3.7.7v28.1c0,.4-.3.7-.7.7h-3.4c-.3,0-.7-.2-.8-.5l-11.8-19.4c0-.2-.3-.2-.3,0v19.1c0,.5-.3.7-.7.7h-3.5c-.4,0-.6-.4-.6-.8Z"></path><path class="cls-2" d="M158.8,85.1l-1.3-4.3c0-.2-.2-.2-.3-.2h-11c-.1,0-.3,0-.3.2l-1.3,4.3c-.1.4-.4.5-.8.5h-3.8c-.5,0-.7-.3-.5-.8l9-28.1c.1-.4.4-.5.8-.5h4.9c.4,0,.6.2.8.5l9,28.1c.1.5-.1.8-.5.8h-3.8c-.5,0-.7-.2-.9-.5ZM147.4,76.7h8.6c.2,0,.3,0,.2-.3l-4.3-14.3c-.1-.2-.3-.2-.3,0l-4.3,14.3c0,.2,0,.3.1.3Z"></path><path class="cls-2" d="M178.6,76.1v-19.2c0-.4.3-.7.7-.7h3.5c.4,0,.7.3.7.7v19.3c0,3.3,2.3,5.6,5.7,5.6s5.7-2.3,5.7-5.6v-19.3c0-.4.3-.7.7-.7h3.5c.4,0,.7.3.7.7v19.2c0,6-4.2,9.9-10.5,9.9-6.4-.1-10.7-4-10.7-9.9Z"></path><path class="cls-2" d="M236.3,56.9v2.9c0,.4-.3.7-.7.7h-7.5c-.2,0-.3,0-.3.3v24.2c0,.4-.3.7-.7.7h-3.5c-.4,0-.7-.3-.7-.7v-24.3c0,0-.1-.3-.3-.3h-7.2c-.4,0-.7-.3-.7-.7v-2.9c0-.4.3-.7.7-.7h20.1c.6.1.8.3.8.8Z"></path><path class="cls-2" d="M271,60.4h-14.1c-.2,0-.3,0-.3.3v7.8c0,0,.1.3.3.3h9.4c.4,0,.7.3.7.7v2.9c0,.4-.3.7-.7.7h-9.4c-.1,0-.3,0-.3.3v8c0,0,.1.3.3.3h14.1c.4,0,.7.3.7.7v2.9c0,.4-.3.7-.7.7h-18.6c-.4,0-.7-.3-.7-.7v-28.4c0-.4.3-.7.7-.7h18.6c.4,0,.7.3.7.7v2.9c-.1.3-.3.6-.7.6Z"></path><path class="cls-2" d="M286.8,76.1v-10.4c0-5.9,4.2-9.8,10.5-9.8s10.5,3.8,10.5,9.5-.2.5-.6.5l-3.6.2c-.4,0-.7,0-.7-.2v-.3c0-3.3-2.2-5.5-5.6-5.5s-5.7,2.2-5.7,5.5v10.7c0,3.3,2.3,5.5,5.7,5.5s5.6-2.2,5.6-5.5.3-.5.7-.5l3.5.2c.4,0,.7,0,.7.2v.2c0,5.8-4.2,9.5-10.5,9.5-6.3,0-10.5-3.9-10.5-9.8Z"></path><path class="cls-2" d="M324,84.9v-28c0-.4.3-.7.7-.7h3.5c.4,0,.7.3.7.7v12.4c0,.2.2.3.3,0l10.8-12.7c.2-.3.5-.4.8-.4h4c.5,0,.7.4.4.8l-9.5,11.6c-.1,0-.1.2,0,.3l10.2,15.9c.3.5.1.8-.5.8h-4c-.3,0-.6-.2-.8-.5l-8.2-12.8c-.1-.2-.3-.2-.4,0l-3,3.6c-.1,0-.1.2-.1.3v8.7c0,.4-.3.7-.7.7h-3.5c-.5,0-.7-.4-.7-.8Z"></path><path class="cls-2" d="M399.4,60.4h-14.1c-.2,0-.3,0-.3.3v7.8c0,0,.1.3.3.3h9.4c.4,0,.7.3.7.7v2.9c0,.4-.3.7-.7.7h-9.4c-.1,0-.3,0-.3.3v11.8c0,.4-.3.7-.7.7h-3.5c-.4,0-.7-.3-.7-.7v-28.3c0-.4.3-.7.7-.7h18.5c.4,0,.7.3.7.7v2.9c.1.3-.1.6-.6.6Z"></path><path class="cls-2" d="M414.8,84.9v-28c0-.4.3-.7.7-.7h3.5c.4,0,.7.3.7.7v24.3c0,0,.1.3.3.3h13.9c.4,0,.7.3.7.7v2.9c0,.4-.3.7-.7.7h-18.3c-.5-.2-.8-.5-.8-.9Z"></path><path class="cls-2" d="M448.8,75.7v-9.6c0-6.1,4.3-10.2,10.7-10.2s10.7,4.1,10.7,10.2v9.6c0,6.2-4.3,10.3-10.7,10.3s-10.7-4.1-10.7-10.3ZM465.3,75.9v-9.8c0-3.6-2.3-6-5.8-6s-5.8,2.4-5.8,6v9.8c0,3.6,2.3,6,5.8,6,3.5,0,5.8-2.4,5.8-6Z"></path><path class="cls-2" d="M485.8,75.7v-9.6c0-6.1,4.3-10.2,10.7-10.2s10.7,4.1,10.7,10.2v9.6c0,6.2-4.3,10.3-10.7,10.3s-10.7-4.1-10.7-10.3ZM502.3,75.9v-9.8c0-3.6-2.3-6-5.8-6s-5.8,2.4-5.8,6v9.8c0,3.6,2.3,6,5.8,6,3.5,0,5.8-2.4,5.8-6Z"></path><path class="cls-2" d="M539.3,85.1l-5.5-12c0,0-.2-.2-.3-.2h-4.9c0,0-.3,0-.3.3v11.8c0,.4-.3.7-.7.7h-3.5c-.4,0-.7-.3-.7-.7v-28.2c0-.4.3-.7.7-.7h11.4c5.2,0,8.7,3.4,8.7,8.6s-2.1,6.7-5.6,7.7c-.2,0-.2.2,0,.3l5.8,12c.2.5,0,.8-.5.8h-3.7c-.4,0-.6,0-.8-.4ZM528.3,60.6v8.3c0,.2,0,.3.3.3h6.3c2.7,0,4.5-1.8,4.5-4.3s-1.8-4.5-4.5-4.5h-6.3c-.2,0-.3,0-.3.2Z"></path><path class="cls-2" d="M560.1,84.9v-28c0-.4.3-.7.7-.7h3.5c.4,0,.7.3.7.7v28.1c0,.4-.3.7-.7.7h-3.5c-.4,0-.7-.4-.7-.8Z"></path><path class="cls-2" d="M582.1,84.9v-28c0-.4.3-.7.7-.7h3.4c.3,0,.7.2.8.5l11.8,19.2c0,.2.3.2.3,0v-18.9c0-.4.3-.7.7-.7h3.5c.4,0,.7.3.7.7v28.1c0,.4-.3.7-.7.7h-3.4c-.3,0-.7-.2-.8-.5l-11.8-19.4c0-.2-.3-.2-.3,0v19.1c0,.5-.3.7-.7.7h-3.5c-.5,0-.7-.4-.7-.8Z"></path><path class="cls-2" d="M620.2,76v-10.2c0-6,4.2-10,10.5-10s10.5,4,10.5,9.3v.2c0,.4-.3.7-.7.7h-3.5c-.4,0-.7-.2-.7-.4v-.3c0-3-2.2-5.2-5.6-5.2s-5.7,2.2-5.7,5.6v10.5c0,3.4,2.4,5.6,5.9,5.6s5.4-1.8,5.4-5v-2.6c0-.2,0-.3-.3-.3h-5c-.4,0-.7-.3-.7-.7v-2.8c0-.4.3-.7.7-.7h9.4c.4,0,.7.3.7.7v5.2c0,6.6-4.2,10.2-10.5,10.2-6.2.1-10.4-3.9-10.4-9.8Z"></path></g></g></g></svg>