<?xml version="1.0" encoding="utf-8"?>
<!-- Generator: Adobe Illustrator 25.2.3, SVG Export Plug-In . SVG Version: 6.00 Build 0)  -->
<svg version="1.1" id="Laag_1" xmlns="http://www.w3.org/2000/svg" xmlns:xlink="http://www.w3.org/1999/xlink" x="0px" y="0px"
	 viewBox="0 0 678.9 140.4" style="enable-background:new 0 0 678.9 140.4;" xml:space="preserve">
<style type="text/css">
	.st0{fill:none;stroke:#000000;stroke-miterlimit:10;}
	.st1{fill:url(#SVGID_1_);}
</style>
<line class="st0" x1="95" y1="-155.5" x2="95.5" y2="-155.5"/>
<linearGradient id="SVGID_1_" gradientUnits="userSpaceOnUse" x1="13.3007" y1="70.7551" x2="81.1817" y2="70.7551">
	<stop  offset="0" style="stop-color:#F9B233"/>
	<stop  offset="0" style="stop-color:#D7B73C"/>
	<stop  offset="0.538" style="stop-color:#FFEF36"/>
	<stop  offset="1" style="stop-color:#EBBF29"/>
</linearGradient>
<path class="st1" d="M47.1,13.5L47.1,13.5L13.4,45.1l0,9.9l0,31.3l0,9.9L47.2,128l33.9-31.8l0-9.9l0-31.3l0-9.9L47.1,13.5z
	 M46.5,23.9l0.8-0.7l0,0v-0.1l13.8,14L47.2,50.6L33.5,36.8L46.5,23.9z M48,117.5l-0.8,0.7l0,0v-0.1l-13.8-13.8l13.8-13.8l13.7,14.1
	L48,117.5z M73.9,93.6l-7.2,6.6L47.2,80.7l-12-12L30,73.9l12,12l-14.4,14.3l-7.1-6.6l0.1-45.8l7.2-6.6l19.5,19.5l12,12l5.2-5.2
	l-12-12l14.4-14.3l7.1,6.6L73.9,93.6z"/>
<g>
	<path d="M102.4,84.9V56.9c0-0.4,0.3-0.7,0.7-0.7h3.4c0.3,0,0.7,0.2,0.8,0.5L119,75.9c0.1,0.2,0.3,0.2,0.3-0.1V56.9
		c0-0.4,0.3-0.7,0.7-0.7h3.5c0.4,0,0.7,0.3,0.7,0.7v28.1c0,0.4-0.3,0.7-0.7,0.7h-3.4c-0.3,0-0.7-0.2-0.8-0.5l-11.8-19.4
		c-0.1-0.2-0.3-0.2-0.3,0.1l0,19.1c0,0.5-0.3,0.7-0.7,0.7h-3.5C102.6,85.6,102.4,85.3,102.4,84.9z"/>
	<path d="M158.8,85.1l-1.3-4.3c0-0.2-0.2-0.2-0.3-0.2h-11c-0.1,0-0.3,0-0.3,0.2l-1.3,4.3c-0.1,0.4-0.4,0.5-0.8,0.5h-3.8
		c-0.5,0-0.7-0.3-0.5-0.8l9-28.1c0.1-0.4,0.4-0.5,0.8-0.5h4.9c0.4,0,0.6,0.2,0.8,0.5l9,28.1c0.1,0.5-0.1,0.8-0.5,0.8h-3.8
		C159.2,85.6,159,85.4,158.8,85.1z M147.4,76.7h8.6c0.2,0,0.3-0.1,0.2-0.3l-4.3-14.3c-0.1-0.2-0.3-0.2-0.3,0l-4.3,14.3
		C147.2,76.6,147.3,76.7,147.4,76.7z"/>
	<path d="M178.6,76.1V56.9c0-0.4,0.3-0.7,0.7-0.7h3.5c0.4,0,0.7,0.3,0.7,0.7v19.3c0,3.3,2.3,5.6,5.7,5.6c3.4,0,5.7-2.3,5.7-5.6V56.9
		c0-0.4,0.3-0.7,0.7-0.7h3.5c0.4,0,0.7,0.3,0.7,0.7v19.2c0,6-4.2,9.9-10.5,9.9C182.9,85.9,178.6,82,178.6,76.1z"/>
	<path d="M236.3,56.9v2.9c0,0.4-0.3,0.7-0.7,0.7h-7.5c-0.2,0-0.3,0.1-0.3,0.3v24.2c0,0.4-0.3,0.7-0.7,0.7h-3.5
		c-0.4,0-0.7-0.3-0.7-0.7V60.7c0-0.1-0.1-0.3-0.3-0.3h-7.2c-0.4,0-0.7-0.3-0.7-0.7v-2.9c0-0.4,0.3-0.7,0.7-0.7h20.1
		C236.1,56.2,236.3,56.4,236.3,56.9z"/>
	<path d="M271,60.4h-14.1c-0.2,0-0.3,0.1-0.3,0.3v7.8c0,0.1,0.1,0.3,0.3,0.3h9.4c0.4,0,0.7,0.3,0.7,0.7v2.9c0,0.4-0.3,0.7-0.7,0.7
		h-9.4c-0.1,0-0.3,0.1-0.3,0.3v8c0,0.1,0.1,0.3,0.3,0.3H271c0.4,0,0.7,0.3,0.7,0.7v2.9c0,0.4-0.3,0.7-0.7,0.7h-18.6
		c-0.4,0-0.7-0.3-0.7-0.7V56.9c0-0.4,0.3-0.7,0.7-0.7H271c0.4,0,0.7,0.3,0.7,0.7v2.9C271.6,60.1,271.4,60.4,271,60.4z"/>
	<path d="M286.8,76.1V65.7c0-5.9,4.2-9.8,10.5-9.8c6.3,0,10.5,3.8,10.5,9.5c0,0.3-0.2,0.5-0.6,0.5l-3.6,0.2c-0.4,0-0.7-0.1-0.7-0.2
		v-0.3c0-3.3-2.2-5.5-5.6-5.5s-5.7,2.2-5.7,5.5v10.7c0,3.3,2.3,5.5,5.7,5.5s5.6-2.2,5.6-5.5c0-0.3,0.3-0.5,0.7-0.5l3.5,0.2
		c0.4,0,0.7,0.1,0.7,0.2v0.2c0,5.8-4.2,9.5-10.5,9.5C291,85.9,286.8,82,286.8,76.1z"/>
	<path d="M324,84.9V56.9c0-0.4,0.3-0.7,0.7-0.7h3.5c0.4,0,0.7,0.3,0.7,0.7v12.4c0,0.2,0.2,0.3,0.3,0.1l10.8-12.7
		c0.2-0.3,0.5-0.4,0.8-0.4h4c0.5,0,0.7,0.4,0.4,0.8l-9.5,11.6c-0.1,0.1-0.1,0.2,0,0.3l10.2,15.9c0.3,0.5,0.1,0.8-0.5,0.8h-4
		c-0.3,0-0.6-0.2-0.8-0.5l-8.2-12.8c-0.1-0.2-0.3-0.2-0.4,0l-3,3.6c-0.1,0.1-0.1,0.2-0.1,0.3v8.7c0,0.4-0.3,0.7-0.7,0.7h-3.5
		C324.2,85.6,324,85.3,324,84.9z"/>
	<path d="M399.4,60.4h-14.1c-0.2,0-0.3,0.1-0.3,0.3v7.8c0,0.1,0.1,0.3,0.3,0.3h9.4c0.4,0,0.7,0.3,0.7,0.7v2.9c0,0.4-0.3,0.7-0.7,0.7
		h-9.4c-0.1,0-0.3,0.1-0.3,0.3v11.8c0,0.4-0.3,0.7-0.7,0.7h-3.5c-0.4,0-0.7-0.3-0.7-0.7V56.9c0-0.4,0.3-0.7,0.7-0.7h18.5
		c0.4,0,0.7,0.3,0.7,0.7v2.9C400.1,60.1,399.9,60.4,399.4,60.4z"/>
	<path d="M414.8,84.9V56.9c0-0.4,0.3-0.7,0.7-0.7h3.5c0.4,0,0.7,0.3,0.7,0.7v24.3c0,0.1,0.1,0.3,0.3,0.3h13.9c0.4,0,0.7,0.3,0.7,0.7
		v2.9c0,0.4-0.3,0.7-0.7,0.7h-18.3C415.1,85.6,414.8,85.3,414.8,84.9z"/>
	<path d="M448.8,75.7v-9.6c0-6.1,4.3-10.2,10.7-10.2c6.4,0,10.7,4.1,10.7,10.2v9.6c0,6.2-4.3,10.3-10.7,10.3
		C453,86,448.8,81.9,448.8,75.7z M465.3,75.9v-9.8c0-3.6-2.3-6-5.8-6c-3.5,0-5.8,2.4-5.8,6v9.8c0,3.6,2.3,6,5.8,6
		C463,81.8,465.3,79.5,465.3,75.9z"/>
	<path d="M485.8,75.7v-9.6c0-6.1,4.3-10.2,10.7-10.2c6.4,0,10.7,4.1,10.7,10.2v9.6c0,6.2-4.3,10.3-10.7,10.3
		C490,86,485.8,81.9,485.8,75.7z M502.3,75.9v-9.8c0-3.6-2.3-6-5.8-6c-3.5,0-5.8,2.4-5.8,6v9.8c0,3.6,2.3,6,5.8,6
		C500,81.8,502.3,79.5,502.3,75.9z"/>
	<path d="M539.3,85.1l-5.5-12c0-0.1-0.2-0.2-0.3-0.2h-4.9c-0.1,0-0.3,0.1-0.3,0.3v11.8c0,0.4-0.3,0.7-0.7,0.7h-3.5
		c-0.4,0-0.7-0.3-0.7-0.7V56.8c0-0.4,0.3-0.7,0.7-0.7h11.4c5.2,0,8.7,3.4,8.7,8.6c0,3.9-2.1,6.7-5.6,7.7c-0.2,0-0.2,0.2-0.1,0.3
		l5.8,12c0.2,0.5,0,0.8-0.5,0.8h-3.7C539.7,85.6,539.5,85.5,539.3,85.1z M528.3,60.6v8.3c0,0.2,0.1,0.3,0.3,0.3h6.3
		c2.7,0,4.5-1.8,4.5-4.3c0-2.6-1.8-4.5-4.5-4.5h-6.3C528.4,60.4,528.3,60.4,528.3,60.6z"/>
	<path d="M560.1,84.9V56.9c0-0.4,0.3-0.7,0.7-0.7h3.5c0.4,0,0.7,0.3,0.7,0.7v28.1c0,0.4-0.3,0.7-0.7,0.7h-3.5
		C560.4,85.6,560.1,85.3,560.1,84.9z"/>
	<path d="M582.1,84.9V56.9c0-0.4,0.3-0.7,0.7-0.7h3.4c0.3,0,0.7,0.2,0.8,0.5l11.8,19.2c0.1,0.2,0.3,0.2,0.3-0.1V56.9
		c0-0.4,0.3-0.7,0.7-0.7h3.5c0.4,0,0.7,0.3,0.7,0.7v28.1c0,0.4-0.3,0.7-0.7,0.7h-3.4c-0.3,0-0.7-0.2-0.8-0.5l-11.8-19.4
		c-0.1-0.2-0.3-0.2-0.3,0.1l0,19.1c0,0.5-0.3,0.7-0.7,0.7h-3.5C582.3,85.6,582.1,85.3,582.1,84.9z"/>
	<path d="M620.2,76V65.8c0-6,4.2-10,10.5-10c6.3,0,10.5,4,10.5,9.3v0.2c0,0.4-0.3,0.7-0.7,0.7H637c-0.4,0-0.7-0.2-0.7-0.4v-0.3
		c0-3-2.2-5.2-5.6-5.2c-3.4,0-5.7,2.2-5.7,5.6v10.5c0,3.4,2.4,5.6,5.9,5.6c3.3,0,5.4-1.8,5.4-5v-2.6c0-0.2-0.1-0.3-0.3-0.3h-5
		c-0.4,0-0.7-0.3-0.7-0.7v-2.8c0-0.4,0.3-0.7,0.7-0.7h9.4c0.4,0,0.7,0.3,0.7,0.7v5.2c0,6.6-4.2,10.2-10.5,10.2
		C624.4,85.9,620.2,81.9,620.2,76z"/>
</g>
</svg>
